<svg width="16" height="16" viewBox="0 0 16 16" fill="none" xmlns="http://www.w3.org/2000/svg">
<path fill-rule="evenodd" clip-rule="evenodd" d="M14 15H12V16H14V15Z" fill="white" style="fill:white;fill-opacity:1;"/>
<path fill-rule="evenodd" clip-rule="evenodd" d="M8 15H6V16H8V15Z" fill="white" style="fill:white;fill-opacity:1;"/>
<path fill-rule="evenodd" clip-rule="evenodd" d="M4 15H2V16H4V15Z" fill="white" style="fill:white;fill-opacity:1;"/>
<path d="M7 14V1H1V14H7ZM2 7H3V6H2V5H3V4H4V5H5V6H4V7H5V8H4V9H3V8H2V7Z" fill="white" style="fill:white;fill-opacity:1;"/>
<path fill-rule="evenodd" clip-rule="evenodd" d="M4 7H3V8H4V7Z" fill="white" style="fill:white;fill-opacity:1;"/>
<path fill-rule="evenodd" clip-rule="evenodd" d="M4 5H3V6H4V5Z" fill="white" style="fill:white;fill-opacity:1;"/>
<path d="M14 3H9V1H8V14H15V1H14V3ZM9 8H11V10H9V8ZM14 6H9V4H14V6Z" fill="white" style="fill:white;fill-opacity:1;"/>
<path fill-rule="evenodd" clip-rule="evenodd" d="M13 1H10V2H13V1Z" fill="white" style="fill:white;fill-opacity:1;"/>
<path fill-rule="evenodd" clip-rule="evenodd" d="M11 8H9V10H11V8Z" fill="#16120F" style="fill:#16120F;fill:color(display-p3 0.0871 0.0714 0.0580);fill-opacity:1;"/>
<path fill-rule="evenodd" clip-rule="evenodd" d="M4 8H3V9H4V8Z" fill="#16120F" style="fill:#16120F;fill:color(display-p3 0.0871 0.0714 0.0580);fill-opacity:1;"/>
<path fill-rule="evenodd" clip-rule="evenodd" d="M5 7H4V8H5V7Z" fill="#16120F" style="fill:#16120F;fill:color(display-p3 0.0871 0.0714 0.0580);fill-opacity:1;"/>
<path fill-rule="evenodd" clip-rule="evenodd" d="M3 7H2V8H3V7Z" fill="#16120F" style="fill:#16120F;fill:color(display-p3 0.0871 0.0714 0.0580);fill-opacity:1;"/>
<path fill-rule="evenodd" clip-rule="evenodd" d="M4 6H3V7H4V6Z" fill="#16120F" style="fill:#16120F;fill:color(display-p3 0.0871 0.0714 0.0580);fill-opacity:1;"/>
<path fill-rule="evenodd" clip-rule="evenodd" d="M5 5H4V6H5V5Z" fill="#16120F" style="fill:#16120F;fill:color(display-p3 0.0871 0.0714 0.0580);fill-opacity:1;"/>
<path fill-rule="evenodd" clip-rule="evenodd" d="M3 5H2V6H3V5Z" fill="#16120F" style="fill:#16120F;fill:color(display-p3 0.0871 0.0714 0.0580);fill-opacity:1;"/>
<path fill-rule="evenodd" clip-rule="evenodd" d="M14 4H9V6H14V4Z" fill="#16120F" style="fill:#16120F;fill:color(display-p3 0.0871 0.0714 0.0580);fill-opacity:1;"/>
<path fill-rule="evenodd" clip-rule="evenodd" d="M4 4H3V5H4V4Z" fill="#16120F" style="fill:#16120F;fill:color(display-p3 0.0871 0.0714 0.0580);fill-opacity:1;"/>
<path d="M0 0V15H1V16H2V15H4V16H6V15H8V16H9V15H11V16H12V15H14V16H15V15H16V0H0ZM13 1V2H10V1H13ZM1 14V1H7V14H1ZM15 14H8V1H9V3H14V1H15V14Z" fill="#16120F" style="fill:#16120F;fill:color(display-p3 0.0871 0.0714 0.0580);fill-opacity:1;"/>
</svg>
